<svg xmlns="http://www.w3.org/2000/svg" width="22" height="22" viewBox="0 0 22 22">
    <g fill="none" fill-rule="evenodd" stroke="#FFF" transform="translate(1 1)">
        <path fill="#FFF" fill-rule="nonzero" stroke-width=".2" d="M15.434 9.378h-4.868V4.56c0-.31-.254-.56-.566-.56a.562.562 0 0 0-.566.56v4.818H4.566a.563.563 0 0 0-.566.56c0 .308.253.56.566.56h4.868v4.942c0 .31.254.56.566.56.312 0 .566-.25.566-.56v-4.943h4.868c.313 0 .566-.25.566-.56 0-.309-.253-.56-.566-.56z"/>
        <circle cx="10" cy="10" r="10" stroke-width=".4"/>
    </g>
</svg>
